<?xml version="1.0" standalone="no"?>
<!DOCTYPE svg PUBLIC "-//W3C//DTD SVG 20010904//EN"
 "http://www.w3.org/TR/2001/REC-SVG-20010904/DTD/svg10.dtd">
<svg version="1.0" xmlns="http://www.w3.org/2000/svg"
 width="512.000000pt" height="512.000000pt" viewBox="0 0 512.000000 512.000000"
 preserveAspectRatio="xMidYMid meet">
<metadata>
Created by potrace 1.11, written by Peter Selinger 2001-2013
</metadata>
<g transform="translate(0.000000,512.000000) scale(0.100000,-0.100000)"
fill="#000000" stroke="none">
<path d="M1345 5101 c-38 -10 -91 -27 -116 -38 -25 -11 -196 -122 -380 -245
-184 -124 -423 -284 -532 -357 -108 -73 -214 -148 -233 -168 -58 -57 -79 -114
-78 -208 0 -120 32 -173 167 -280 21 -16 44 -35 50 -41 60 -53 276 -218 324
-247 182 -111 370 -159 593 -152 69 2 135 6 146 8 197 46 276 82 572 262 117
72 225 137 240 146 15 9 124 75 242 146 118 72 253 152 300 178 168 95 245
139 250 145 3 3 41 36 85 74 44 39 85 75 90 80 6 6 46 43 90 81 44 39 82 72
85 75 3 3 43 39 90 80 47 41 87 77 90 80 14 16 69 48 100 60 59 21 146 23 198
6 36 -13 335 -199 362 -226 7 -7 362 -243 375 -250 13 -7 99 -63 105 -70 3 -3
42 -30 88 -60 93 -62 111 -90 88 -137 -12 -23 -225 -193 -312 -249 -120 -77
-253 -115 -399 -115 -163 1 -266 35 -470 157 -87 52 -161 94 -166 94 -5 0 -9
3 -9 8 0 4 -17 16 -37 27 -21 11 -60 34 -88 51 -93 58 -142 66 -205 34 -51
-26 -80 -69 -86 -127 -7 -61 16 -107 71 -146 49 -35 396 -246 481 -292 72 -39
178 -78 271 -101 127 -30 368 -25 498 10 78 21 113 34 185 68 108 51 171 95
387 270 226 183 253 219 259 340 4 87 -21 161 -75 216 -21 21 -128 99 -237
172 -109 74 -349 234 -533 358 -183 123 -357 235 -386 247 -130 58 -321 69
-450 25 -119 -40 -173 -74 -305 -193 -19 -18 -82 -72 -140 -122 -58 -49 -125
-107 -150 -130 -47 -41 -59 -51 -190 -165 -41 -36 -77 -68 -80 -71 -3 -4 -79
-44 -170 -89 -91 -45 -343 -189 -560 -319 -217 -131 -415 -246 -440 -258 -92
-42 -197 -64 -303 -64 -203 1 -323 50 -552 226 -137 105 -173 142 -170 170 5
41 50 75 503 377 530 353 538 357 650 344 57 -7 144 -44 171 -74 9 -9 52 -48
96 -87 44 -38 95 -83 113 -100 49 -43 94 -59 147 -51 106 16 170 138 122 232
-25 49 -292 279 -379 327 -125 69 -313 93 -453 58z"/>
<path d="M923 3184 c-141 -24 -299 -87 -414 -165 -65 -44 -356 -276 -417 -333
-59 -55 -86 -119 -86 -211 -1 -90 20 -147 77 -207 18 -18 169 -125 337 -238
168 -112 414 -277 546 -366 299 -200 360 -224 548 -219 176 4 297 57 450 195
21 19 44 40 50 45 6 6 58 51 116 100 58 50 110 95 116 100 6 6 39 35 74 65 35
30 100 88 144 128 67 60 110 87 251 159 93 47 347 192 565 323 217 130 417
247 444 259 45 21 182 58 216 59 200 6 278 -8 415 -74 89 -43 366 -254 381
-291 22 -52 4 -73 -164 -184 -86 -57 -159 -106 -162 -109 -3 -3 -149 -101
-326 -218 -201 -133 -339 -219 -370 -228 -68 -21 -157 -13 -221 20 -28 14 -57
31 -64 38 -8 7 -47 42 -88 78 -41 36 -92 82 -115 103 -56 52 -87 65 -144 63
-79 -2 -142 -58 -157 -138 -3 -12 1 -41 7 -66 9 -38 25 -57 128 -148 207 -183
257 -217 382 -256 58 -18 96 -23 188 -22 184 0 233 21 583 258 133 89 365 245
515 345 149 100 288 198 308 218 56 56 78 114 78 208 1 84 -9 114 -60 182 -38
51 -482 403 -508 403 -4 0 -18 8 -33 17 -42 28 -131 62 -233 89 -106 29 -309
40 -410 24 -107 -18 -124 -22 -209 -52 -102 -36 -131 -50 -253 -125 -179 -108
-644 -390 -768 -465 -110 -66 -193 -114 -360 -206 -37 -20 -129 -97 -220 -182
-9 -8 -47 -42 -84 -75 -37 -33 -78 -69 -90 -80 -36 -32 -166 -148 -195 -173
-72 -61 -193 -86 -288 -57 -28 8 -178 101 -382 237 -185 123 -338 225 -341
228 -3 3 -69 47 -147 99 -155 101 -174 125 -148 179 16 34 300 248 380 286
218 105 446 105 665 -3 47 -22 128 -70 388 -229 20 -12 44 -25 52 -29 8 -3 22
-12 30 -19 8 -7 36 -18 62 -25 152 -41 265 156 150 263 -26 25 -370 237 -503
311 -66 36 -210 91 -270 102 -149 27 -295 30 -416 9z"/>
<path d="M1055 1267 c-42 -19 -83 -70 -91 -113 -4 -20 -5 -82 -2 -138 4 -81
10 -113 30 -158 47 -101 91 -136 410 -323 9 -5 81 -48 158 -95 134 -81 160
-97 230 -137 16 -10 98 -59 182 -109 161 -96 195 -114 267 -139 150 -52 363
-67 511 -36 140 30 229 73 563 273 358 215 371 226 371 322 1 66 -25 117 -76
153 -34 23 -51 28 -102 28 l-61 -1 -321 -201 c-176 -110 -340 -211 -365 -223
-139 -72 -295 -63 -442 24 -184 109 -1006 627 -1018 642 -7 9 -16 45 -20 81
-7 67 -24 101 -70 135 -33 25 -115 32 -154 15z"/>
<path d="M3935 1267 c-88 -40 -122 -162 -67 -236 37 -49 69 -66 132 -66 97 0
154 57 155 155 0 62 -16 95 -66 132 -33 25 -115 32 -154 15z"/>
</g>
</svg>
